<?xml version="1.0" standalone="no"?>
<!DOCTYPE svg PUBLIC "-//W3C//DTD SVG 20010904//EN"
 "http://www.w3.org/TR/2001/REC-SVG-20010904/DTD/svg10.dtd">
<svg version="1.0" xmlns="http://www.w3.org/2000/svg"
 width="736.000000pt" height="736.000000pt" viewBox="0 0 736.000000 736.000000"
 preserveAspectRatio="xMidYMid meet">
<metadata>
Created by potrace 1.14, written by Peter Selinger 2001-2017
</metadata>
<g transform="translate(0.000000,736.000000) scale(0.100000,-0.100000)"
fill="#000000" stroke="none">
<path d="M3950 6265 c0 -229 3 -295 13 -296 16 -1 2694 -1 2727 0 l26 1 -1
295 0 295 -1382 0 -1383 0 0 -295z"/>
<path d="M1817 5184 c-1 -1 -60 -4 -132 -8 -71 -4 -143 -8 -160 -10 -84 -9
-145 -17 -166 -22 -13 -2 -42 -7 -64 -9 -110 -14 -354 -77 -515 -135 -63 -22
-119 -42 -125 -43 -5 -1 -12 -4 -15 -7 -3 -3 -23 -11 -45 -19 -22 -7 -47 -19
-55 -25 -8 -7 -35 -21 -60 -32 -78 -33 -360 -214 -360 -230 0 -2 14 -27 30
-56 17 -29 38 -70 48 -90 9 -21 20 -38 24 -38 5 0 8 -4 8 -9 0 -5 22 -47 48
-93 26 -46 56 -99 66 -118 9 -19 23 -44 30 -55 6 -11 22 -39 34 -63 21 -39 24
-41 45 -31 12 7 24 15 27 19 21 27 184 129 290 180 132 64 423 168 519 184 30
6 86 16 106 20 194 37 484 40 690 5 150 -25 340 -101 434 -174 33 -26 171
-164 191 -191 16 -21 30 -46 59 -98 34 -62 97 -244 87 -253 -3 -3 -1 -14 4
-23 17 -32 34 -369 20 -389 -3 -4 -309 -7 -680 -8 -598 -1 -856 -6 -918 -18
-10 -2 -43 -6 -72 -10 -29 -4 -62 -9 -74 -11 -12 -2 -38 -7 -58 -9 -20 -3 -48
-9 -62 -15 -15 -5 -26 -8 -26 -5 0 2 -18 -2 -40 -10 -22 -8 -43 -14 -45 -14
-11 1 -71 -14 -80 -19 -5 -4 -16 -7 -22 -8 -76 -12 -443 -223 -443 -255 0 -5
-5 -9 -10 -9 -13 0 -106 -99 -139 -148 -13 -20 -28 -39 -31 -42 -14 -10 -90
-170 -110 -232 -36 -111 -39 -122 -46 -162 -3 -21 -8 -48 -11 -60 -13 -51 -11
-314 3 -396 77 -442 383 -772 865 -933 58 -19 119 -38 135 -40 16 -3 65 -12
109 -21 152 -29 267 -39 425 -39 102 1 269 10 310 18 14 2 45 7 70 9 25 3 56
8 70 11 14 2 39 7 55 11 63 12 240 66 249 75 6 5 17 9 26 9 8 0 32 9 53 20 20
11 44 20 52 20 8 0 15 3 15 8 0 4 15 13 33 21 17 8 46 25 63 38 17 13 34 23
38 23 8 0 6 -1 101 76 82 67 175 163 209 217 10 15 21 27 25 27 3 0 6 -120 6
-267 l0 -268 358 -1 c316 0 357 2 358 15 0 9 1 150 1 314 l1 299 66 -65 c120
-117 283 -239 421 -314 30 -16 64 -35 75 -41 18 -10 90 -43 185 -84 30 -14
125 -47 155 -55 6 -1 44 -12 85 -24 79 -22 176 -43 275 -59 55 -9 101 -14 225
-26 63 -6 372 -5 445 1 101 8 226 25 290 39 11 3 52 11 90 20 39 8 108 27 155
41 98 31 323 124 328 137 2 4 12 8 22 8 9 0 23 7 30 15 7 8 16 15 21 15 9 0
110 60 119 70 3 3 22 16 43 29 21 13 43 28 50 34 7 7 34 30 62 52 47 38 176
163 202 196 11 13 10 20 -5 36 -9 11 -33 39 -52 63 -19 23 -40 47 -46 53 -5 7
-39 46 -74 87 -36 41 -69 80 -75 87 -5 6 -29 33 -52 60 -23 26 -55 63 -71 82
l-30 34 -63 -61 c-91 -87 -114 -106 -209 -171 -102 -70 -306 -170 -382 -187
-5 -1 -9 -2 -10 -4 -2 -1 -10 -3 -18 -5 -8 -2 -40 -11 -70 -19 -30 -9 -71 -18
-90 -21 -20 -3 -47 -8 -60 -10 -96 -20 -395 -26 -540 -12 -78 8 -246 43 -301
62 -21 8 -40 14 -42 14 -2 0 -25 8 -104 40 -240 95 -454 264 -610 479 -99 138
-192 368 -218 542 -3 19 -8 43 -11 53 -3 10 0 18 8 18 7 1 770 2 1695 3 1261
1 1685 4 1694 13 14 14 21 366 8 468 -4 39 -11 91 -14 117 -4 39 -34 198 -50
271 -2 10 -16 57 -32 105 -15 48 -28 89 -28 92 -1 3 -7 18 -13 33 -7 16 -12
31 -12 34 0 15 -116 241 -165 323 -109 180 -210 301 -379 455 -60 54 -258 195
-275 195 -5 0 -16 6 -23 13 -30 29 -327 160 -392 173 -10 2 -33 8 -50 14 -38
12 -157 39 -206 46 -19 2 -46 7 -60 10 -101 19 -492 27 -620 11 -36 -4 -76 -9
-90 -11 -55 -6 -261 -51 -290 -63 -8 -3 -19 -7 -25 -8 -23 -6 -142 -46 -160
-54 -11 -5 -59 -28 -107 -49 -205 -94 -410 -236 -568 -395 -52 -52 -102 -103
-110 -113 -8 -10 -31 -39 -50 -64 -59 -76 -55 -75 -85 -14 -30 61 -115 192
-155 238 -90 105 -220 216 -318 273 -26 15 -49 30 -52 33 -3 3 -35 20 -73 38
-134 65 -305 123 -437 148 -14 2 -45 8 -70 14 -44 9 -130 21 -180 25 -91 8
-350 22 -353 19z m3668 -668 c99 -20 239 -64 283 -88 17 -10 32 -15 32 -13 0
3 18 -6 40 -20 22 -14 42 -25 45 -25 4 0 26 -13 50 -30 24 -16 48 -30 53 -30
6 0 12 -3 14 -7 2 -5 28 -27 59 -51 130 -98 271 -274 349 -434 62 -127 130
-363 130 -453 l0 -25 -1344 0 c-1275 0 -1345 1 -1342 18 2 9 7 39 10 65 23
157 91 342 180 492 17 28 34 52 38 53 4 2 8 8 8 14 0 9 47 74 75 104 5 6 26
29 46 51 149 166 453 335 664 369 6 1 12 3 15 4 14 5 51 11 100 17 30 3 57 7
59 9 11 10 366 -6 436 -20z m-2601 -1996 l-1 -295 -28 -60 c-28 -58 -93 -168
-125 -210 -42 -56 -194 -197 -256 -238 -105 -69 -246 -135 -344 -163 -171 -47
-261 -58 -450 -58 -135 0 -240 7 -300 20 -14 3 -36 7 -50 10 -14 3 -29 7 -35
8 -37 8 -70 20 -155 57 -164 72 -292 201 -350 354 -29 77 -34 117 -34 240 0
160 54 296 163 412 115 123 286 188 546 209 39 4 71 7 73 9 1 1 305 2 675 1
l672 -1 -1 -295z"/>
</g>
</svg>
